<svg version="1.1" id="Capa_1" xmlns="http://www.w3.org/2000/svg" xmlns:xlink="http://www.w3.org/1999/xlink" x="0px" y="0px"
	 viewBox="0 0 335.826 335.826" style="enable-background:new 0 0 335.826 335.826;" xml:space="preserve">
<g>
	<path d="M248.745,111.578L209.44,90.5c2.404-0.991,4.1-3.354,4.1-6.115V54.613c0-3.654-2.969-6.613-6.621-6.613h-4.322V37h4.768
		c2.762,0,5-2.24,5-5V5c0-2.762-2.238-5-5-5h-59.727c-1.326,0-2.598,0.525-3.535,1.463l-10.182,10.182
		c-0.938,0.938-1.465,2.209-1.465,3.535v1.902H98.977c-0.73,0-1.426,0.32-1.9,0.877L81.614,36.062
		c-0.432,0.504-0.643,1.158-0.592,1.818c0.053,0.662,0.365,1.275,0.869,1.705l9.125,7.795c0.453,0.387,1.031,0.598,1.623,0.598
		c0.066,0,0.131-0.002,0.197-0.008c0.66-0.051,1.274-0.363,1.705-0.867l11.119-13.021h27.262C133.714,35.8,135.44,37,137.456,37
		h4.769v11h-4.322c-3.654,0-6.623,2.959-6.623,6.613v29.772c0,2.761,1.696,5.124,4.101,6.115l-39.306,21.078
		c-3.734,2.002-6.064,5.896-6.064,10.135v202.613c0,6.352,5.148,11.5,11.5,11.5h141.801c6.352,0,11.5-5.148,11.5-11.5V121.713
		C254.811,117.475,252.479,113.58,248.745,111.578z M172.411,256.486c-19.457,0-35.287-15.83-35.287-35.287
		c0-21.783,31.318-52.355,32.65-53.646c1.469-1.422,3.803-1.422,5.271,0c1.334,1.291,32.652,31.863,32.652,53.646
		C207.698,240.656,191.868,256.486,172.411,256.486z"/>
	<path d="M172.516,236.162c-8.568,0-15.539-6.971-15.539-15.539c0-1.885-1.527-3.412-3.412-3.412c-1.885,0-3.41,1.527-3.41,3.412
		c0,12.33,10.031,22.361,22.361,22.361c1.885,0,3.412-1.527,3.412-3.41C175.929,237.689,174.401,236.162,172.516,236.162z"/>
</g>
</svg>
